<svg width="150" height="150" viewBox="0 0 150 150" fill="none" xmlns="http://www.w3.org/2000/svg">
<rect width="150" height="150" rx="75" fill="url(#paint0_linear_1_250)"/>
<path d="M114.883 56.3706C114.883 57.7429 114.403 58.9094 113.443 59.87L76.1836 97.1289L69.1847 104.128C68.2241 105.088 67.0576 105.569 65.6853 105.569C64.3129 105.569 63.1465 105.088 62.1858 104.128L55.1869 97.1289L36.5575 78.4995C35.5968 77.5388 35.1165 76.3723 35.1165 75C35.1165 73.6277 35.5968 72.4612 36.5575 71.5005L43.5564 64.5016C44.517 63.541 45.6835 63.0607 47.0558 63.0607C48.4282 63.0607 49.5947 63.541 50.5553 64.5016L65.6853 79.6831L99.4447 45.8722C100.405 44.9116 101.572 44.4313 102.944 44.4313C104.316 44.4313 105.483 44.9116 106.444 45.8722L113.443 52.8711C114.403 53.8317 114.883 54.9982 114.883 56.3706Z" fill="#F3F4F6"/>
<defs>
<linearGradient id="paint0_linear_1_250" x1="150" y1="75" x2="0" y2="75" gradientUnits="userSpaceOnUse">
<stop stop-color="#2D3ED8"/>
<stop offset="1" stop-color="#727CCD"/>
</linearGradient>
</defs>
</svg>
