<svg width="5724" height="5724" viewBox="0 0 5724 5724" fill="none" xmlns="http://www.w3.org/2000/svg">
<rect width="5724" height="5724" rx="2862" fill="url(#paint0_linear_1_250)"/>
<path d="M4383.95 2151.1C4383.95 2203.47 4365.62 2247.98 4328.97 2284.64L2907.17 3706.44L2640.09 3973.52C2603.43 4010.17 2558.92 4028.5 2506.55 4028.5C2454.18 4028.5 2409.67 4010.17 2373.01 3973.52L2105.93 3706.44L1395.03 2995.54C1358.38 2958.88 1340.05 2914.37 1340.05 2862C1340.05 2809.63 1358.38 2765.12 1395.03 2728.46L1662.11 2461.38C1698.77 2424.72 1743.28 2406.4 1795.65 2406.4C1848.02 2406.4 1892.53 2424.72 1929.19 2461.38L2506.55 3040.71L3794.81 1750.48C3831.47 1713.83 3875.98 1695.5 3928.35 1695.5C3980.72 1695.5 4025.23 1713.83 4061.89 1750.48L4328.97 2017.56C4365.62 2054.22 4383.95 2098.73 4383.95 2151.1Z" fill="#F3F4F6"/>
<defs>
<linearGradient id="paint0_linear_1_250" x1="5724" y1="2862" x2="0" y2="2862" gradientUnits="userSpaceOnUse">
<stop stop-color="#2D3ED8"/>
<stop offset="1" stop-color="#727CCD"/>
</linearGradient>
</defs>
</svg>
